# xmcd
#
# Track frame offsets:
#	150
#	13682
#	33181
#	64931
#	84306
#	112527
#	140705
#	158319
#	188239
#	214203
#	230035
#
# Disc length: 3362 seconds
#
# Revision: 0
# Processed by: cddbd v1.4PL0 Copyright (c) Steve Scherf et al.
# Submitted via: dBpowerAMP V4.0
#
DISCID=870d200b
DTITLE=Pat "Mother Blues" Cohen - Pat "Mother Blues" Cohen
DYEAR=1900
DGENRE=Blues
TTITLE0=Big Fine Woman
TTITLE1=Dr. Long John
TTITLE2=The Lady and the Snake
TTITLE3=Wang Dang Doodle
TTITLE4=I'd Rather Go Blind
TTITLE5=God Bless the Child
TTITLE6=I'll Take You There
TTITLE7=Down Home Blues
TTITLE8=Steal Away
TTITLE9=Dr. Feelgood
TTITLE10=Party All Night Long in New Orleans
EXTD=
EXTT0=
EXTT1=
EXTT2=
EXTT3=
EXTT4=
EXTT5=
EXTT6=
EXTT7=
EXTT8=
EXTT9=
EXTT10=
PLAYORDER=
